<svg version="1.1" viewBox="0.0 0.0 1528.5380577427823 2352.3569553805773" fill="none" stroke="none" stroke-linecap="square" stroke-miterlimit="10" xmlns:xlink="http://www.w3.org/1999/xlink" xmlns="http://www.w3.org/2000/svg"><clipPath id="p.0"><path d="m0 0l1528.5381 0l0 2352.357l-1528.5381 0l0 -2352.357z" clip-rule="nonzero"/></clipPath><g clip-path="url(#p.0)"><path fill="#000000" fill-opacity="0.0" d="m0 0l1528.5381 0l0 2352.357l-1528.5381 0z" fill-rule="evenodd"/><path fill="#f7f700" d="m1243.9261 315.40805l0 0c9.749756 -0.4348755 18.012451 7.116089 18.4552 16.865509l13.924194 306.61548c0.21264648 4.6818237 -1.4433594 9.254883 -4.6036377 12.713074c-3.1604004 3.458252 -7.566162 5.5183716 -12.248169 5.727234l0 0l0 0c-9.749756 0.43481445 -18.012451 -7.116089 -18.4552 -16.86554l-13.924316 -306.61545c-0.44274902 -9.74942 7.102173 -18.005432 16.851929 -18.440308z" fill-rule="evenodd"/><path fill="#f7f700" d="m1257.7793 630.0428l0 0c9.706299 -1.2176514 18.560547 5.6639404 19.776611 15.370422l21.643555 172.75519c0.5839844 4.661194 -0.7076416 9.363831 -3.5905762 13.073242c-2.8830566 3.7094727 -7.121216 6.121887 -11.782349 6.706665l0 0l0 0c-9.706299 1.2175903 -18.560669 -5.6639404 -19.776733 -15.370483l-21.643433 -172.75519c-1.2160645 -9.706482 5.666626 -18.562256 15.372925 -19.779846z" fill-rule="evenodd"/><path fill="#f7f700" d="m868.72473 402.23718l0 0c5.1228027 -8.297333 15.995728 -10.860779 24.2854 -5.725647l376.53162 233.24658c3.980835 2.4659424 6.821411 6.4137573 7.8967285 10.974976c1.0754395 4.561157 0.29748535 9.362061 -2.1625977 13.346619l0 0l0 0c-5.1226807 8.297302 -15.995605 10.860779 -24.285278 5.725647l-376.53168 -233.24658c-8.289673 -5.135132 -10.856934 -16.024292 -5.734192 -24.321594z" fill-rule="evenodd"/><path fill="#64f9ee" d="m11.748124 1185.74l0 0c-6.488259 -7.218872 -5.853098 -18.28247 1.4186707 -24.711426l862.202 -762.2622c3.4920044 -3.0872498 8.078735 -4.6709595 12.75116 -4.40271c4.6724243 0.268219 9.047791 2.366455 12.163574 5.833069l0 0l0 0c6.48822 7.218811 5.8530884 18.282501 -1.4187012 24.711365l-862.202 762.2623c-7.2717686 6.428833 -18.426474 5.788452 -24.914734 -1.4304199z" fill-rule="evenodd"/><path fill="#00ff1b" d="m1099.4252 823.7621l0 0c9.471436 2.3395996 15.184204 11.897034 12.759766 21.347168l-161.4881 629.46313c-1.1642456 4.538086 -4.0876465 8.444092 -8.127075 10.8585205c-4.0393677 2.4144287 -8.863953 3.1397705 -13.4122925 2.0162354l0 0l0 0c-9.471497 -2.3395996 -15.184265 -11.897095 -12.759827 -21.347168l161.4881 -629.4632c2.4244385 -9.450073 12.067993 -15.214294 21.539429 -12.874695z" fill-rule="evenodd"/><path fill="#00ff1b" d="m1292.2535 806.4902l0 0c7.366699 6.383911 8.100586 17.475891 1.6390381 24.774658l-250.52222 282.98615c-3.1029053 3.505005 -7.484009 5.6485596 -12.179565 5.9592285c-4.6955566 0.31066895 -9.320923 -1.2370605 -12.8585205 -4.3027344l0 0l0 0c-7.366699 -6.383911 -8.100525 -17.47583 -1.6390991 -24.774658l250.52228 -282.98615c6.461426 -7.298706 17.671387 -8.040405 25.038086 -1.6564941z" fill-rule="evenodd"/><path fill="#00ff1b" d="m1180.006 913.10254l0 0c8.332031 -5.0270996 19.077515 -2.2977295 24.00061 6.0962524l99.62073 169.85468c2.3641357 4.031006 3.0419922 8.855835 1.8843994 13.413086c-1.1575928 4.557373 -4.055664 8.473877 -8.056885 10.887939l0 0l0 0c-8.332153 5.0270996 -19.077637 2.2977295 -24.000732 -6.0963135l-99.62073 -169.85468c-4.9230957 -8.393982 -2.159546 -19.273865 6.1726074 -24.300964z" fill-rule="evenodd"/><path fill="#bb00ff" d="m728.15466 933.9574l0 0c9.027893 -3.66156 19.236816 0.7197876 22.802246 9.786133l201.0097 511.13647c1.7121582 4.35376 1.632019 9.227783 -0.22283936 13.549683c-1.8548584 4.3220215 -5.3325195 7.737915 -9.667847 9.496216l0 0l0 0c-9.027893 3.661621 -19.236816 -0.71972656 -22.802246 -9.786133l-201.0097 -511.1364c-3.5654297 -9.066345 0.86279297 -19.384338 9.890686 -23.04596z" fill-rule="evenodd"/><path fill="#bb00ff" d="m48.778397 2340.6277l0 0c-8.732189 -4.244385 -12.300861 -14.729736 -7.9708557 -23.419678l675.0283 -1354.7354c2.0793457 -4.1730957 5.739319 -7.3656006 10.174744 -8.875183c4.435486 -1.5096436 9.283081 -1.2126465 13.47644 0.8255615l0 0l0 0c8.732178 4.2443237 12.300842 14.729675 7.970825 23.419678l-675.0283 1354.7354c-4.3300095 8.689941 -14.919006 12.293945 -23.651192 8.049561z" fill-rule="evenodd"/><path fill="#bb00ff" d="m45.83614 2339.6746l0 0c-6.8796387 -6.8796387 -6.8152046 -17.96875 0.1439209 -24.767822l872.65704 -852.6062c3.341919 -3.2651367 7.859314 -5.0841064 12.558472 -5.0567627c4.6991577 0.02722168 9.195129 1.8985596 12.49884 5.2023926l0 0l0 0c6.8796387 6.8796387 6.8152466 17.968506 -0.1439209 24.7677l-872.65704 852.6062c-6.9591293 6.7993164 -18.177666 6.734131 -25.057308 -0.14550781z" fill-rule="evenodd"/><path fill="#00ff1b" d="m1030.2562 1095.7919l0 0c0 -9.749756 7.9031982 -17.562256 17.652344 -17.449585l240.03394 2.7731934c4.6816406 0.05407715 9.171631 1.9659424 12.482056 5.3148193c3.3104248 3.348877 5.170288 7.860718 5.170288 12.542725l0 0l0 0c0 9.749756 -7.9031982 17.562134 -17.652344 17.449585l-240.03394 -2.7731934l0 0c-9.7491455 -0.1126709 -17.652344 -8.107788 -17.652344 -17.857544z" fill-rule="evenodd"/><path fill="#64f9ee" d="m10.359895 1177.285l0 0c-2.9745097 -9.271362 2.1454506 -19.150513 11.435752 -22.06543l1131.4592 -355.01862c4.4613037 -1.3998413 9.307373 -0.97369385 13.472046 1.1846924c4.164795 2.1584473 7.306885 5.8723145 8.735352 10.324585l0 0l0 0c2.9744873 9.271423 -2.1455078 19.150513 -11.435791 22.06549l-1131.4592 355.01855c-9.2903 2.915039 -19.232895 -2.237793 -22.207405 -11.509277z" fill-rule="evenodd"/><path fill="#afafaf" d="m1509.8539 270.79187l0 0c9.123657 3.6094055 13.571167 13.922577 9.933838 23.035065l-93.78882 234.96927c-1.7467041 4.3759155 -5.1623535 7.8841553 -9.495483 9.752808c-4.33313 1.8686523 -9.228882 1.9446411 -13.610107 0.21136475l0 0l0 0c-9.123535 -3.609436 -13.571045 -13.922546 -9.933838 -23.035095l93.78894 -234.96921c3.637207 -9.112488 13.981934 -13.573608 23.105469 -9.964203z" fill-rule="evenodd"/><path fill="#afafaf" d="m1373.6561 282.23077l0 0c9.706299 -1.4698486 18.735352 5.211731 20.167114 14.923706l32.79956 222.49902c0.6876221 4.6638794 -0.5046387 9.417114 -3.3144531 13.214111c-2.8098145 3.796936 -7.006836 6.326599 -11.667969 7.0324707l0 0l0 0c-9.706299 1.4698486 -18.735474 -5.211731 -20.167114 -14.923706l-32.799683 -222.49905l0 0c-1.4316406 -9.712006 5.276245 -18.776672 14.982544 -20.246552z" fill-rule="evenodd"/><path fill="#ff006b" d="m1027.4456 35.4176l0 0c0 -9.471464 7.6781006 -17.149605 17.149536 -17.149605l297.7008 0c4.54834 0 8.9104 1.8068275 12.126587 5.0230026c3.2161865 3.216175 5.0230713 7.578245 5.0230713 12.126602l0 0l0 0c0 9.471466 -7.6782227 17.149609 -17.149658 17.149609l-297.7008 0c-9.471436 0 -17.149536 -7.6781425 -17.149536 -17.149609z" fill-rule="evenodd"/><path fill="#ff006b" d="m1332.6791 25.660105l0 0c5.6619873 -7.610222 16.415405 -9.181753 24.018433 -3.5101109l158.07324 117.91786c3.651123 2.7236176 6.072632 6.787445 6.7316895 11.297501c0.6591797 4.5100555 -0.49804688 9.096878 -3.217041 12.751434l0 0l0 0c-5.6619873 7.6102295 -16.415527 9.181763 -24.018555 3.5101166l-158.07324 -117.91786c-7.6030273 -5.6716423 -9.176514 -16.43872 -3.5145264 -24.048944z" fill-rule="evenodd"/><path fill="#ff006b" d="m1504.795 137.36206l0 0c9.802002 0 17.748047 7.94606 17.748047 17.748032l0 118.17323c0 4.707062 -1.869873 9.221344 -5.1983643 12.549744c-3.3283691 3.3283997 -7.8426514 5.1982727 -12.549683 5.1982727l0 0l0 0c-9.802002 0 -17.748047 -7.946045 -17.748047 -17.748016l0 -118.17323c0 -9.801971 7.946045 -17.748032 17.748047 -17.748032z" fill-rule="evenodd"/><path fill="#ff006b" d="m1348.513 22.699894l0 0c9.80188 -0.87843704 18.468018 6.3547993 19.356201 16.155888l22.200928 244.97958c0.42651367 4.7066345 -1.0343018 9.388092 -4.061157 13.014465c-3.0267334 3.6264038 -7.371582 5.9006653 -12.078735 6.32251l0 0l0 0c-9.80188 0.8784485 -18.468018 -6.3547974 -19.356201 -16.155884l-22.200806 -244.97957l0 0c-0.88830566 -9.80109 6.3377686 -18.458553 16.13977 -19.33699z" fill-rule="evenodd"/><path fill="#ff006b" d="m1360.7361 283.18195l0 0c-0.7305908 -9.801971 6.621704 -18.35904 16.421997 -19.112762l125.045654 -9.617004c4.706299 -0.36195374 9.359131 1.1608124 12.934937 4.2332764c3.5759277 3.0724487 5.7819824 7.4429626 6.1328125 12.150024l0 0l0 0c0.7305908 9.801971 -6.621826 18.35904 -16.421997 19.112762l-125.04578 9.617004c-9.800171 0.75372314 -18.337158 -6.5813293 -19.067627 -16.3833z" fill-rule="evenodd"/><path fill="#ff006b" d="m1162.4803 351.27765l0 0c-2.8701172 -9.367096 2.3930664 -19.299225 11.755737 -22.184021l210.5044 -64.86032c4.4960938 -1.3853455 9.355591 -0.92700195 13.509399 1.2741699c4.1538086 2.2011719 7.2617188 5.9648438 8.640015 10.463074l0 0l0 0c2.8701172 9.367096 -2.3930664 19.299225 -11.755615 22.184021l-210.50452 64.86032c-9.362671 2.8847961 -19.279175 -2.3701477 -22.149414 -11.737244z" fill-rule="evenodd"/><path fill="#ff006b" d="m973.0918 159.62372l0 0c6.5839233 -7.262314 17.822144 -7.827301 25.101257 -1.2619324l193.3565 174.39789c3.4956055 3.1528015 5.592041 7.5618896 5.828003 12.257294c0.23608398 4.695404 -1.4074707 9.29248 -4.569214 12.779999l0 0l0 0c-6.5839844 7.2622986 -17.822144 7.827301 -25.101318 1.2619324l-193.3565 -174.39789c-7.279114 -6.565384 -7.8426514 -17.774963 -1.258728 -25.037292z" fill-rule="evenodd"/><path fill="#ff006b" d="m875.8061 429.16525l0 0c-9.027893 -3.9573364 -13.178345 -14.501312 -9.270325 -23.55066l162.09973 -375.3554c1.876709 -4.3456497 5.3988037 -7.7583923 9.791382 -9.487467c4.392578 -1.7290726 9.295898 -1.6328392 13.631226 0.26753044l0 0l0 0c9.027832 3.9573154 13.178345 14.501301 9.270264 23.550644l-162.09973 375.3554c-3.90802 9.049347 -14.394653 13.177246 -23.422546 9.21994z" fill-rule="evenodd"/><path fill="#f7f700" d="m873.9353 397.3656l0 0c8.001648 -5.6098022 19.003357 -3.6481934 24.572998 4.3814087l278.12964 400.96948c2.6746826 3.855957 3.713379 8.6241455 2.8875732 13.255615c-0.82580566 4.6314697 -3.4484863 8.746826 -7.2910156 11.440735l0 0l0 0c-8.001587 5.6098633 -19.003296 3.6481934 -24.572876 -4.3814087l-278.1297 -400.96945l0 0c-5.569641 -8.029602 -3.5982056 -19.086548 4.4033813 -24.69638z" fill-rule="evenodd"/><path fill="#f7f700" d="m1147.034 819.09326l0 0c0 -9.749756 7.9036865 -17.610962 17.65332 -17.55841l116.661865 0.6286621c4.682007 0.02520752 9.172119 1.9093628 12.482788 5.237854c3.310669 3.3285522 5.170532 7.8287964 5.170532 12.510803l0 0l0 0c0 9.749756 -7.9036865 17.610962 -17.65332 17.55841l-116.661865 -0.6286621c-9.749634 -0.052490234 -17.65332 -7.9988403 -17.65332 -17.748657z" fill-rule="evenodd"/></g></svg>